<svg id="brain" xmlns="http://www.w3.org/2000/svg" width="60" height="66.783" viewBox="0 0 60 66.783">
  <g id="Group_2946" data-name="Group 2946" transform="translate(35.217 10.826)">
    <g id="Group_2945" data-name="Group 2945">
      <path id="Path_3482" data-name="Path 3482" d="M297.3,83a1.3,1.3,0,1,0,1.3,1.3A1.3,1.3,0,0,0,297.3,83Z" transform="translate(-296 -83)"/>
    </g>
  </g>
  <g id="Group_2948" data-name="Group 2948" transform="translate(22.174 10.826)">
    <g id="Group_2947" data-name="Group 2947">
      <path id="Path_3483" data-name="Path 3483" d="M197.3,83a1.3,1.3,0,1,0,1.3,1.3A1.3,1.3,0,0,0,197.3,83Z" transform="translate(-196 -83)"/>
    </g>
  </g>
  <g id="Group_2950" data-name="Group 2950" transform="translate(0)">
    <g id="Group_2949" data-name="Group 2949">
      <path id="Path_3484" data-name="Path 3484" d="M84.32,38.985A10.431,10.431,0,0,0,86,33.391a9.059,9.059,0,0,0-3.3-7.008,8.817,8.817,0,0,0,.7-3.426,9.722,9.722,0,0,0-5.273-8.6,7.818,7.818,0,0,0-5.937-8.531A9.4,9.4,0,0,0,63.826,0,9.166,9.166,0,0,0,56,4.7,9.167,9.167,0,0,0,48.174,0a9.4,9.4,0,0,0-8.355,5.828,7.817,7.817,0,0,0-5.937,8.531,9.722,9.722,0,0,0-5.273,8.6,8.817,8.817,0,0,0,.7,3.426A9.06,9.06,0,0,0,26,33.391a10.43,10.43,0,0,0,1.68,5.593,9,9,0,0,0,1.046,11.692c-.9,5.412,3.421,10.889,9.013,10.889l.119,0A10.283,10.283,0,0,0,56,61.109a10.283,10.283,0,0,0,18.142.454l.119,0a9.457,9.457,0,0,0,9.13-9.522,8.349,8.349,0,0,0-.117-1.367A9,9,0,0,0,84.32,38.985ZM54.7,19.745a5.184,5.184,0,0,0-2.609-.7,1.3,1.3,0,1,0,0,2.609A2.612,2.612,0,0,1,54.7,24.261v24.8a10.411,10.411,0,0,0-7.826-3.544,1.3,1.3,0,1,0,0,2.609A7.835,7.835,0,0,1,54.7,55.957a8.137,8.137,0,0,1-7.826,8.217,7.848,7.848,0,0,1-7.082-4.55,1.3,1.3,0,0,0-1.33-.747c-.092.011-.184.023-.276.035-3.712.508-7.893-3.7-6.761-8.4a1.3,1.3,0,0,0-.434-1.308,6.493,6.493,0,0,1-2.378-4.99,6.419,6.419,0,0,1,.957-3.356,8.8,8.8,0,0,0,5.565,2.052,1.3,1.3,0,1,0,0-2.609,6.856,6.856,0,0,1-6.522-6.913,6.485,6.485,0,0,1,3.046-5.5,1.3,1.3,0,0,0,.437-1.745,6.419,6.419,0,0,1-.874-3.193c0-3.52,2.87-6.913,6.522-6.913a6.9,6.9,0,0,1,6.522,6.913,1.3,1.3,0,0,0,2.609,0,9.457,9.457,0,0,0-9.13-9.522,8.458,8.458,0,0,0-1.3.1c0-.034,0-.068,0-.1a5.218,5.218,0,0,1,8.908-3.689A1.3,1.3,0,0,0,47.186,7.9,7.773,7.773,0,0,0,42.86,5.7a6.59,6.59,0,0,1,5.314-3.093A6.9,6.9,0,0,1,54.7,9.522ZM76.87,42.913a8.8,8.8,0,0,0,5.565-2.052,6.418,6.418,0,0,1,.957,3.356,6.494,6.494,0,0,1-2.377,4.99,1.3,1.3,0,0,0-.434,1.308,6.436,6.436,0,0,1,.2,1.529c0,4.049-3.662,7.321-6.964,6.869-.092-.013-.184-.025-.276-.035a1.3,1.3,0,0,0-1.33.747,7.848,7.848,0,0,1-7.083,4.55A8.137,8.137,0,0,1,57.3,55.957,7.835,7.835,0,0,1,65.13,48.13a1.3,1.3,0,1,0,0-2.609A10.411,10.411,0,0,0,57.3,49.066v-24.8a2.612,2.612,0,0,1,2.609-2.609,1.3,1.3,0,1,0,0-2.609,5.184,5.184,0,0,0-2.609.7V9.522a6.9,6.9,0,0,1,6.522-6.913A6.59,6.59,0,0,1,69.14,5.7a7.774,7.774,0,0,0-4.326,2.2,1.3,1.3,0,1,0,1.843,1.846,5.218,5.218,0,0,1,8.908,3.689c0,.034,0,.068,0,.1a8.458,8.458,0,0,0-1.3-.1,9.457,9.457,0,0,0-9.13,9.522,1.3,1.3,0,0,0,2.609,0,6.9,6.9,0,0,1,6.522-6.913c3.65,0,6.522,3.391,6.522,6.913a6.418,6.418,0,0,1-.874,3.193,1.3,1.3,0,0,0,.437,1.745,6.485,6.485,0,0,1,3.046,5.5A6.855,6.855,0,0,1,76.87,40.3a1.3,1.3,0,0,0,0,2.609Z" transform="translate(-26)"/>
    </g>
  </g>
  <g id="Group_2952" data-name="Group 2952" transform="translate(10.435 21.652)">
    <g id="Group_2951" data-name="Group 2951" transform="translate(0)">
      <path id="Path_3485" data-name="Path 3485" d="M121.32,172.268a1.3,1.3,0,0,0-1.842-.1,6.533,6.533,0,0,1-10.87-4.861,1.3,1.3,0,1,0-2.609,0,9.144,9.144,0,0,0,7.643,9.007,3.92,3.92,0,0,1-3.73,2.732,1.3,1.3,0,0,0,0,2.609,6.532,6.532,0,0,0,6.4-5.3,9.115,9.115,0,0,0,4.9-2.247A1.3,1.3,0,0,0,121.32,172.268Z" transform="translate(-106 -166)"/>
    </g>
  </g>
  <g id="Group_2954" data-name="Group 2954" transform="translate(10.435 50.739)">
    <g id="Group_2953" data-name="Group 2953" transform="translate(0)">
      <path id="Path_3486" data-name="Path 3486" d="M107.3,389a1.3,1.3,0,0,0,0,2.609,6.9,6.9,0,0,1,6.522,6.913,1.3,1.3,0,0,0,2.609,0A9.457,9.457,0,0,0,107.3,389Z" transform="translate(-106 -389)"/>
    </g>
  </g>
  <g id="Group_2956" data-name="Group 2956" transform="translate(11.791 40.304)">
    <g id="Group_2955" data-name="Group 2955" transform="translate(0)">
      <path id="Path_3487" data-name="Path 3487" d="M126.781,309a11.715,11.715,0,0,0-10.213,5.949,1.3,1.3,0,0,0,2.269,1.287,9.11,9.11,0,0,1,7.944-4.627,1.3,1.3,0,0,0,0-2.609Z" transform="translate(-116.398 -309)"/>
    </g>
  </g>
  <g id="Group_2958" data-name="Group 2958" transform="translate(33.913 21.652)">
    <g id="Group_2957" data-name="Group 2957" transform="translate(0)">
      <path id="Path_3488" data-name="Path 3488" d="M297.739,179.043a3.92,3.92,0,0,1-3.73-2.732,9.144,9.144,0,0,0,7.643-9.007,1.3,1.3,0,1,0-2.609,0,6.522,6.522,0,0,1-10.87,4.861,1.3,1.3,0,1,0-1.739,1.944,9.115,9.115,0,0,0,4.9,2.247,6.532,6.532,0,0,0,6.4,5.3,1.3,1.3,0,0,0,0-2.609Z" transform="translate(-286 -166)"/>
    </g>
  </g>
  <g id="Group_2960" data-name="Group 2960" transform="translate(39.13 50.739)">
    <g id="Group_2959" data-name="Group 2959">
      <path id="Path_3489" data-name="Path 3489" d="M335.13,389a9.457,9.457,0,0,0-9.13,9.522,1.3,1.3,0,0,0,2.609,0,6.9,6.9,0,0,1,6.522-6.913,1.3,1.3,0,0,0,0-2.609Z" transform="translate(-326 -389)"/>
    </g>
  </g>
  <g id="Group_2962" data-name="Group 2962" transform="translate(36.522 40.304)">
    <g id="Group_2961" data-name="Group 2961" transform="translate(0)">
      <path id="Path_3490" data-name="Path 3490" d="M317.517,314.949A11.713,11.713,0,0,0,307.3,309a1.3,1.3,0,0,0,0,2.609,9.112,9.112,0,0,1,7.943,4.627,1.3,1.3,0,0,0,2.27-1.286Z" transform="translate(-306 -309)"/>
    </g>
  </g>
</svg>
