<svg xmlns="http://www.w3.org/2000/svg" width="13.632" height="13.632" viewBox="0 0 13.632 13.632">
  <path id="Icon_awesome-linkedin-in" data-name="Icon awesome-linkedin-in" d="M3.051,13.633H.225v-9.1H3.051ZM1.637,3.29A1.645,1.645,0,1,1,3.274,1.637,1.651,1.651,0,0,1,1.637,3.29ZM13.629,13.633h-2.82V9.2c0-1.056-.021-2.41-1.469-2.41-1.469,0-1.695,1.147-1.695,2.334v4.507H4.822v-9.1H7.532V5.773h.04A2.97,2.97,0,0,1,10.246,4.3c2.86,0,3.386,1.884,3.386,4.33v5Z" transform="translate(0 -0.001)" fill="rgba(6,5,26,0.7)"/>
</svg>
