<svg xmlns="http://www.w3.org/2000/svg" width="25.466" height="16.984" viewBox="0 0 25.466 16.984">
  <path id="Icon_ionic-ios-arrow-round-forward" data-name="Icon ionic-ios-arrow-round-forward" d="M24.115,11.577a1.156,1.156,0,0,0-.009,1.628l5.378,5.387H9.016a1.15,1.15,0,0,0,0,2.3H29.475L24.1,26.278a1.164,1.164,0,0,0,.009,1.628,1.145,1.145,0,0,0,1.619-.009l7.289-7.342h0a1.291,1.291,0,0,0,.239-.363,1.1,1.1,0,0,0,.088-.442,1.153,1.153,0,0,0-.327-.8L25.725,11.6A1.127,1.127,0,0,0,24.115,11.577Z" transform="translate(-7.875 -11.252)" fill="#fff"/>
</svg>
