<svg xmlns="http://www.w3.org/2000/svg" width="13.64" height="13.637" viewBox="0 0 13.64 13.637">
  <path id="Icon_awesome-instagram" data-name="Icon awesome-instagram" d="M6.816,5.56a3.5,3.5,0,1,0,3.5,3.5A3.491,3.491,0,0,0,6.816,5.56Zm0,5.769A2.273,2.273,0,1,1,9.089,9.056a2.277,2.277,0,0,1-2.273,2.273Zm4.455-5.912a.816.816,0,1,1-.816-.816A.814.814,0,0,1,11.271,5.417Zm2.316.828a4.036,4.036,0,0,0-1.1-2.857,4.062,4.062,0,0,0-2.857-1.1c-1.126-.064-4.5-.064-5.626,0a4.056,4.056,0,0,0-2.857,1.1,4.049,4.049,0,0,0-1.1,2.857c-.064,1.126-.064,4.5,0,5.626a4.036,4.036,0,0,0,1.1,2.857A4.067,4.067,0,0,0,4,15.827c1.126.064,4.5.064,5.626,0a4.036,4.036,0,0,0,2.857-1.1,4.062,4.062,0,0,0,1.1-2.857c.064-1.126.064-4.5,0-5.623Zm-1.455,6.831a2.3,2.3,0,0,1-1.3,1.3,15.029,15.029,0,0,1-4.02.274,15.146,15.146,0,0,1-4.02-.274,2.3,2.3,0,0,1-1.3-1.3,15.029,15.029,0,0,1-.274-4.02A15.146,15.146,0,0,1,1.5,5.036a2.3,2.3,0,0,1,1.3-1.3,15.029,15.029,0,0,1,4.02-.274,15.146,15.146,0,0,1,4.02.274,2.3,2.3,0,0,1,1.3,1.3,15.029,15.029,0,0,1,.274,4.02A15.02,15.02,0,0,1,12.132,13.076Z" transform="translate(0.005 -2.238)" fill="rgba(6,5,26,0.7)"/>
</svg>
