<svg xmlns="http://www.w3.org/2000/svg" width="15.58" height="12.654" viewBox="0 0 15.58 12.654">
  <path id="Icon_awesome-twitter" data-name="Icon awesome-twitter" d="M13.978,6.534c.01.138.01.277.01.415A9.023,9.023,0,0,1,4.9,16.034,9.023,9.023,0,0,1,0,14.6a6.606,6.606,0,0,0,.771.04,6.4,6.4,0,0,0,3.964-1.364A3.2,3.2,0,0,1,1.75,11.062a4.027,4.027,0,0,0,.6.049A3.377,3.377,0,0,0,3.193,11,3.194,3.194,0,0,1,.633,7.869v-.04a3.216,3.216,0,0,0,1.443.405,3.2,3.2,0,0,1-.989-4.271A9.076,9.076,0,0,0,7.671,7.305a3.6,3.6,0,0,1-.079-.732,3.2,3.2,0,0,1,5.526-2.185,6.287,6.287,0,0,0,2.027-.771,3.184,3.184,0,0,1-1.4,1.76,6.4,6.4,0,0,0,1.839-.494,6.864,6.864,0,0,1-1.6,1.651Z" transform="translate(0 -3.381)" fill="rgba(6,5,26,0.7)"/>
</svg>
