<svg id="lotus" xmlns="http://www.w3.org/2000/svg" width="84.578" height="63.433" viewBox="0 0 84.578 63.433">
  <g id="Group_2971" data-name="Group 2971">
    <path id="Path_3495" data-name="Path 3495" d="M82.816,85.144a67.579,67.579,0,0,0-9.245.61,47.532,47.532,0,0,0-5.942-17.342,1.76,1.76,0,0,0-2.089-.8A50.642,50.642,0,0,0,52.4,74.239a49.537,49.537,0,0,0-8.982-9.832,1.766,1.766,0,0,0-2.258,0,49.537,49.537,0,0,0-8.982,9.832,50.629,50.629,0,0,0-13.14-6.625,1.761,1.761,0,0,0-2.089.8,47.539,47.539,0,0,0-5.942,17.342,67.575,67.575,0,0,0-9.245-.61A1.761,1.761,0,0,0,0,86.906C0,99.257,3.675,108.936,11.236,116.5c7.258,7.256,17.706,10.935,31.052,10.935s23.794-3.679,31.052-10.935c7.561-7.561,11.236-17.24,11.236-29.591A1.761,1.761,0,0,0,82.816,85.144ZM65.275,71.44a43.438,43.438,0,0,1,4.833,14.911A37.164,37.164,0,0,0,59.255,90.33,40.521,40.521,0,0,0,54.305,77.2,46.683,46.683,0,0,1,65.275,71.44Zm-45.971,0A46.7,46.7,0,0,1,30.273,77.2a40.526,40.526,0,0,0-4.95,13.135,37.162,37.162,0,0,0-10.853-3.98A43.44,43.44,0,0,1,19.3,71.44Zm-5.575,42.566c-6.6-6.6-9.856-14.678-10.176-25.317,8.937.2,15.737,1.965,21.234,5.448a36.556,36.556,0,0,0-.066,4.819,35.061,35.061,0,0,0,12.134,24.7C27.078,122.793,19.3,119.577,13.728,114.006Zm28.561,9.526c-8.542-6.076-13.518-14.828-14.052-24.765-.592-11.131,4.512-22.239,14.052-30.682,9.54,8.444,14.644,19.551,14.052,30.683C55.807,108.7,50.831,117.456,42.289,123.531Zm28.561-9.526c-5.573,5.572-13.35,8.788-23.126,9.645a35.061,35.061,0,0,0,12.134-24.7,36.585,36.585,0,0,0-.066-4.819c5.5-3.483,12.3-5.247,21.234-5.448C80.706,99.328,77.447,107.407,70.85,114.006Z" transform="translate(0 -63.999)"/>
  </g>
</svg>
