<svg id="moon" xmlns="http://www.w3.org/2000/svg" width="70" height="65.558" viewBox="0 0 70 65.558">
  <g id="Group_2964" data-name="Group 2964" transform="translate(29.891 10.309)">
    <g id="Group_2963" data-name="Group 2963" transform="translate(0 0)">
      <path id="Path_3491" data-name="Path 3491" d="M175.093,78.651a1.622,1.622,0,0,0-1.125-.351H167.83l5.773-6.445.541-.6.278-.351a1.939,1.939,0,0,0,.234-.438,1.461,1.461,0,0,0,.1-.526,1.1,1.1,0,0,0-.541-1.052,3.259,3.259,0,0,0-1.534-.292h-7.176a1.578,1.578,0,0,0-1.067.322,1.081,1.081,0,0,0-.38.862q0,.745.5.906a4.691,4.691,0,0,0,1.461.175h4.677q-.292.409-.76.965l-1.2,1.344-1.622,1.754-1.885,2.09q-.979,1.1-1.286,1.461a1.374,1.374,0,0,0,.132,1.885,1.988,1.988,0,0,0,1.345.395h8.535a1.665,1.665,0,0,0,1.14-.336,1.111,1.111,0,0,0,.38-.862A1.169,1.169,0,0,0,175.093,78.651Z" transform="translate(-163.629 -68.592)"/>
    </g>
  </g>
  <g id="Group_2966" data-name="Group 2966" transform="translate(45.216 19.736)">
    <g id="Group_2965" data-name="Group 2965">
      <path id="Path_3492" data-name="Path 3492" d="M256.59,128.3a1.286,1.286,0,0,0-.906-.278h-4.91l4.6-5.144.438-.482.278-.336a1.53,1.53,0,0,0,.19-.351,1.167,1.167,0,0,0,.088-.424.877.877,0,0,0-.424-.848,2.6,2.6,0,0,0-1.228-.234h-5.787a1.271,1.271,0,0,0-.848.263.862.862,0,0,0-.307.687q0,.584.395.731a3.73,3.73,0,0,0,1.169.132h3.741a8.672,8.672,0,0,1-.614.775l-.965,1.081-1.257,1.461L248.786,127q-.789.877-1.038,1.2a1.1,1.1,0,0,0,.1,1.461,1.578,1.578,0,0,0,1.067.307H255.7a1.33,1.33,0,0,0,.906-.263.891.891,0,0,0,.292-.687A.935.935,0,0,0,256.59,128.3Z" transform="translate(-247.516 -120.197)"/>
    </g>
  </g>
  <g id="Group_2968" data-name="Group 2968" transform="translate(58.141 9.491)">
    <g id="Group_2967" data-name="Group 2967">
      <path id="Path_3493" data-name="Path 3493" d="M329.748,74.245a1.622,1.622,0,0,0-1.125-.351h-6.182l5.773-6.445.541-.6.351-.424a1.942,1.942,0,0,0,.234-.438,1.459,1.459,0,0,0,.1-.526,1.1,1.1,0,0,0-.541-1.052,3.262,3.262,0,0,0-1.534-.292h-7.249a1.578,1.578,0,0,0-1.067.322,1.081,1.081,0,0,0-.38.862q0,.745.5.906a4.691,4.691,0,0,0,1.461.175h4.677q-.292.409-.76.965l-1.213,1.374-1.578,1.754-1.885,2.09q-.979,1.1-1.286,1.461a1.374,1.374,0,0,0,.132,1.885,1.987,1.987,0,0,0,1.344.395h8.52a1.666,1.666,0,0,0,1.169-.292,1.111,1.111,0,0,0,.38-.862A1.169,1.169,0,0,0,329.748,74.245Z" transform="translate(-318.269 -64.112)"/>
    </g>
  </g>
  <g id="Group_2970" data-name="Group 2970" transform="translate(0 0)">
    <g id="Group_2969" data-name="Group 2969" transform="translate(0 0)">
      <path id="Path_3494" data-name="Path 3494" d="M64.577,56.392a1.462,1.462,0,0,0-1.608-.336,31.041,31.041,0,0,1-40-41.811,1.461,1.461,0,0,0-1.885-1.973A33.993,33.993,0,1,0,64.841,58.014,1.461,1.461,0,0,0,64.577,56.392ZM34.019,74.806A31.084,31.084,0,0,1,18.893,16.568,33.507,33.507,0,0,0,17.14,27.309,34.007,34.007,0,0,0,60.456,60.016,31.2,31.2,0,0,1,34.019,74.806Z" transform="translate(0 -12.158)"/>
    </g>
  </g>
</svg>
