<svg xmlns="http://www.w3.org/2000/svg" width="305.255" height="236.495" viewBox="0 0 305.255 236.495">
  <g id="scribble" transform="matrix(-1, -0.017, 0.017, -1, 301.21, 236.495)">
    <g id="Group_2943" data-name="Group 2943" transform="translate(0 0)">
      <path id="Path_3117" data-name="Path 3117" d="M262.612,41.888C218.641-4.46,132.412,7.008,112.425,64.823a52.847,52.847,0,0,0-2.284,9.078c46.255,8.6,91.369,36.791,95.366,70.716,3.426,30.58-33.692,39.658-58.248,22.457-29.124-20.546-49.682-50.648-51.395-82.661-29.695-3.345-58.819,3.345-74.808,27.713-26.84,41.091,9.137,96.518,57.105,112.764,5.139,1.433,2.855,8.123-2.284,6.689C9.635,215.811-24.628,138.406,20.486,92.537c17.7-17.68,46.255-23.413,75.95-20.546,4-32.491,34.263-58.293,70.239-68.327,41.687-11.467,79.948,5.255,104.5,32.491C275.176,40.455,266.609,45.71,262.612,41.888ZM134.7,138.406c9.137,10.512,21.129,22.457,36.547,26.757,14.846,4.3,19.987-12.9,20.557-20.546.571-9.556-7.424-18.157-14.847-24.846-15.418-14.811-41.115-27.713-67.383-33.446C111.283,104.96,122.133,123.116,134.7,138.406Z" transform="translate(0 0)" fill="rgba(130,100,253,0.21)"/>
      <path id="Path_3118" data-name="Path 3118" d="M51.487,48.856c-15.99,0-32.55-.956-47.969-4.3-6.281-1.433-3.426-8.6,2.856-7.645,12.563,1.911,25.7,1.433,38.261.956-.571-6.211-1.142-12.9-2.284-19.112-1.142-4.778-5.139-11.945-1.713-16.723C42.351-.359,45.206-.359,48.062.6c6.853,2.389,6.853,12.423,7.995,17.679A126.632,126.632,0,0,1,58.34,43.6C58.34,46.467,54.913,48.856,51.487,48.856Z" transform="translate(243.103 10.711)" fill="rgba(130,100,253,0.21)"/>
    </g>
  </g>
</svg>
