<svg id="stars" xmlns="http://www.w3.org/2000/svg" width="181.3" height="23.941" viewBox="0 0 181.3 23.941">
  <path id="Icon_ionic-ios-star" data-name="Icon ionic-ios-star" d="M27.055,11.662H18.589L16.016,3.985a.932.932,0,0,0-1.75,0l-2.573,7.677H3.171a.924.924,0,0,0-.921.921.677.677,0,0,0,.017.155.885.885,0,0,0,.386.65l6.958,4.9L6.94,26.056a.923.923,0,0,0,.317,1.036.891.891,0,0,0,.518.224,1.128,1.128,0,0,0,.576-.207l6.791-4.84,6.791,4.84a1.078,1.078,0,0,0,.576.207.827.827,0,0,0,.512-.224.912.912,0,0,0,.317-1.036l-2.67-7.764,6.9-4.949.167-.144a.965.965,0,0,0,.3-.616A.975.975,0,0,0,27.055,11.662Z" transform="translate(-2.25 -3.375)" fill="#9797de"/>
  <path id="Icon_ionic-ios-star-2" data-name="Icon ionic-ios-star" d="M27.055,11.662H18.589L16.016,3.985a.932.932,0,0,0-1.75,0l-2.573,7.677H3.171a.924.924,0,0,0-.921.921.677.677,0,0,0,.017.155.885.885,0,0,0,.386.65l6.958,4.9L6.94,26.056a.923.923,0,0,0,.317,1.036.891.891,0,0,0,.518.224,1.128,1.128,0,0,0,.576-.207l6.791-4.84,6.791,4.84a1.078,1.078,0,0,0,.576.207.827.827,0,0,0,.512-.224.912.912,0,0,0,.317-1.036l-2.67-7.764,6.9-4.949.167-.144a.965.965,0,0,0,.3-.616A.975.975,0,0,0,27.055,11.662Z" transform="translate(36.629 -3.375)" fill="#9797de"/>
  <path id="Icon_ionic-ios-star-3" data-name="Icon ionic-ios-star" d="M27.055,11.662H18.589L16.016,3.985a.932.932,0,0,0-1.75,0l-2.573,7.677H3.171a.924.924,0,0,0-.921.921.677.677,0,0,0,.017.155.885.885,0,0,0,.386.65l6.958,4.9L6.94,26.056a.923.923,0,0,0,.317,1.036.891.891,0,0,0,.518.224,1.128,1.128,0,0,0,.576-.207l6.791-4.84,6.791,4.84a1.078,1.078,0,0,0,.576.207.827.827,0,0,0,.512-.224.912.912,0,0,0,.317-1.036l-2.67-7.764,6.9-4.949.167-.144a.965.965,0,0,0,.3-.616A.975.975,0,0,0,27.055,11.662Z" transform="translate(75.509 -3.375)" fill="#9797de"/>
  <path id="Icon_ionic-ios-star-4" data-name="Icon ionic-ios-star" d="M27.055,11.662H18.589L16.016,3.985a.932.932,0,0,0-1.75,0l-2.573,7.677H3.171a.924.924,0,0,0-.921.921.677.677,0,0,0,.017.155.885.885,0,0,0,.386.65l6.958,4.9L6.94,26.056a.923.923,0,0,0,.317,1.036.891.891,0,0,0,.518.224,1.128,1.128,0,0,0,.576-.207l6.791-4.84,6.791,4.84a1.078,1.078,0,0,0,.576.207.827.827,0,0,0,.512-.224.912.912,0,0,0,.317-1.036l-2.67-7.764,6.9-4.949.167-.144a.965.965,0,0,0,.3-.616A.975.975,0,0,0,27.055,11.662Z" transform="translate(114.388 -3.375)" fill="#9797de"/>
  <path id="Icon_ionic-ios-star-5" data-name="Icon ionic-ios-star" d="M27.055,11.662H18.589L16.016,3.985a.932.932,0,0,0-1.75,0l-2.573,7.677H3.171a.924.924,0,0,0-.921.921.677.677,0,0,0,.017.155.885.885,0,0,0,.386.65l6.958,4.9L6.94,26.056a.923.923,0,0,0,.317,1.036.891.891,0,0,0,.518.224,1.128,1.128,0,0,0,.576-.207l6.791-4.84,6.791,4.84a1.078,1.078,0,0,0,.576.207.827.827,0,0,0,.512-.224.912.912,0,0,0,.317-1.036l-2.67-7.764,6.9-4.949.167-.144a.965.965,0,0,0,.3-.616A.975.975,0,0,0,27.055,11.662Z" transform="translate(153.267 -3.375)" fill="#9797de"/>
</svg>
